<?xml version="1.0" standalone="no"?>
<!DOCTYPE svg PUBLIC "-//W3C//DTD SVG 20010904//EN"
 "http://www.w3.org/TR/2001/REC-SVG-20010904/DTD/svg10.dtd">
<svg version="1.0" xmlns="http://www.w3.org/2000/svg"
 width="752.000000pt" height="332.000000pt" viewBox="0 0 752.000000 332.000000"
 preserveAspectRatio="xMidYMid meet">

<g transform="translate(0.000000,332.000000) scale(0.100000,-0.100000)"
fill="#000000" stroke="none">
<path d="M6175 3309 c-61 -14 -99 -35 -153 -84 -148 -134 -159 -362 -25 -502
210 -218 556 -113 613 186 7 40 6 70 -4 121 -42 201 -233 324 -431 279z m163
-215 c49 -29 67 -63 67 -129 0 -63 -14 -93 -63 -129 -27 -20 -89 -32 -125 -23
-59 15 -107 83 -107 152 0 56 21 96 66 126 37 24 125 26 162 3z"/>
<path d="M2015 2919 c-107 -16 -191 -50 -273 -112 -52 -39 -126 -133 -150
-189 -15 -37 -42 -153 -42 -184 l0 -24 168 0 168 0 18 60 c14 45 28 69 62 100
58 54 78 60 187 60 106 0 148 -18 201 -83 28 -35 31 -47 34 -121 3 -69 0 -90
-17 -124 -42 -83 -127 -121 -291 -129 l-110 -6 0 -143 0 -144 89 0 c175 0 297
-50 342 -139 33 -65 34 -206 1 -268 -70 -133 -283 -172 -420 -78 -56 38 -107
117 -117 180 l-6 45 -163 0 c-89 0 -165 -2 -168 -5 -9 -9 13 -139 33 -198 76
-225 304 -360 609 -361 359 -1 594 204 593 519 0 92 -23 188 -61 258 -35 65
-118 139 -187 168 -30 12 -55 25 -55 28 0 3 24 19 53 35 61 35 140 113 166
164 51 101 64 233 35 345 -23 88 -49 133 -115 200 -126 126 -345 181 -584 146z"/>
<path d="M3583 2916 c-246 -47 -395 -218 -466 -536 -19 -85 -21 -126 -21 -380
-1 -258 2 -294 22 -385 38 -174 62 -236 123 -320 100 -137 204 -195 406 -223
97 -14 126 -14 204 -3 164 23 253 65 350 163 70 70 103 129 138 242 30 97 30
304 0 402 -42 137 -119 246 -218 309 -60 37 -185 75 -271 82 -141 11 -310 -49
-402 -143 -28 -29 -55 -51 -59 -49 -22 14 28 319 66 398 65 135 183 193 335
166 58 -10 76 -19 115 -53 30 -27 52 -58 64 -91 l19 -50 162 -3 162 -3 -7 43
c-10 58 -44 159 -61 179 -8 8 -14 21 -14 27 0 21 -144 157 -190 179 -111 54
-316 76 -457 49z m265 -951 c119 -36 202 -176 189 -323 -10 -116 -56 -196
-145 -249 -44 -26 -54 -28 -157 -28 -119 0 -141 7 -217 67 -83 65 -121 230
-82 353 23 74 91 145 166 174 65 25 173 27 246 6z"/>
<path d="M5195 2914 c-287 -41 -443 -216 -522 -584 -26 -122 -26 -536 0 -660
20 -95 42 -170 63 -217 8 -17 14 -33 14 -36 0 -19 78 -134 118 -175 120 -122
233 -162 452 -162 180 -1 265 20 375 92 94 60 193 208 238 353 51 163 74 414
57 617 -23 280 -89 478 -199 600 -107 119 -232 169 -436 173 -71 2 -143 1
-160 -1z m273 -343 c130 -66 182 -230 182 -571 0 -370 -56 -529 -206 -583 -74
-26 -196 -23 -259 7 -76 36 -131 106 -160 203 -46 154 -45 581 2 743 16 56 59
129 97 165 20 20 81 49 121 59 45 11 184 -3 223 -23z"/>
<path d="M1300 2189 c-101 -21 -135 -29 -325 -79 -106 -28 -282 -86 -340 -110
-11 -5 -47 -20 -80 -34 -144 -59 -312 -166 -398 -253 -93 -95 -130 -160 -149
-260 -38 -209 106 -422 408 -601 407 -241 1023 -424 1769 -526 66 -9 167 -23
225 -31 257 -36 800 -75 1035 -75 l110 0 -27 23 c-15 12 -54 42 -88 67 -33 24
-60 47 -60 50 0 3 36 32 80 65 43 32 78 60 77 62 -2 1 -138 7 -302 13 -303 11
-635 32 -800 50 -49 6 -151 17 -225 26 -297 33 -649 96 -950 171 -666 164
-1061 391 -1104 633 -7 43 16 127 48 179 124 196 490 403 1021 579 66 22 135
43 152 47 18 3 35 11 38 16 8 12 0 11 -115 -12z"/>
<path d="M6115 2195 c17 -8 35 -14 42 -15 23 0 287 -92 428 -148 369 -146 631
-315 730 -472 35 -57 58 -136 50 -178 -45 -239 -432 -467 -1055 -622 -91 -22
-181 -45 -200 -50 -68 -18 -245 -51 -535 -99 -171 -29 -493 -64 -735 -81 -321
-23 -453 -29 -612 -30 l-168 0 0 105 c0 58 -2 105 -5 105 -17 0 -506 -343
-502 -352 1 -4 90 -68 197 -142 107 -74 213 -148 235 -165 76 -56 75 -57 75
61 l0 105 268 12 c147 7 330 19 407 26 77 8 174 17 215 20 41 4 113 12 160 20
47 7 112 16 145 20 33 3 85 10 115 15 30 5 102 17 160 26 132 20 471 88 570
114 41 10 86 22 100 26 14 3 45 12 70 19 25 7 79 23 120 35 359 105 682 258
880 416 252 201 316 440 173 654 -81 120 -280 265 -478 346 -33 14 -69 29 -80
34 -58 24 -234 82 -340 110 -66 17 -145 38 -175 46 -65 17 -256 54 -273 53 -7
0 2 -7 18 -14z"/>
</g>
</svg>
